HIERARCHY
ROOT hip
{
  OFFSET 0 0 0
  CHANNELS 6 Xposition Yposition Zposition Zrotation Yrotation Xrotation
  JOINT abdomen
  {
    OFFSET 0 20.6881 -0.73152
    CHANNELS 3 Zrotation Xrotation Yrotation
    JOINT chest
    {
      OFFSET 0 11.7043 -0.48768
      CHANNELS 3 Zrotation Xrotation Yrotation
      JOINT neck
      {
        OFFSET 0 22.1894 -2.19456
        CHANNELS 3 Zrotation Xrotation Yrotation
        JOINT head
        {
          OFFSET -0.24384 7.07133 1.2192
          CHANNELS 3 Zrotation Xrotation Yrotation
          JOINT leftEye
          {
            OFFSET 4.14528 8.04674 8.04672
            CHANNELS 3 Zrotation Xrotation Yrotation
            End Site
            {
              OFFSET 1 0 0
            }
          }
          JOINT rightEye
          {
            OFFSET -3.6576 8.04674 8.04672
            CHANNELS 3 Zrotation Xrotation Yrotation
            End Site
            {
              OFFSET 1 0 0
            }
          }
        }
      }
      JOINT rCollar
      {
        OFFSET -2.68224 19.2634 -4.8768
        CHANNELS 3 Zrotation Xrotation Yrotation
        JOINT rShldr
        {
          OFFSET -8.77824 -1.95073 1.46304
          CHANNELS 3 Zrotation Xrotation Yrotation
          JOINT rForeArm
          {
            OFFSET -28.1742 -1.7115 0.48768
            CHANNELS 3 Zrotation Xrotation Yrotation
            JOINT rHand
            {
              OFFSET -22.5879 0.773209 7.07136
              CHANNELS 3 Zrotation Xrotation Yrotation
              JOINT rThumb1
              {
                OFFSET -1.2192 -0.487915 3.41376
                CHANNELS 3 Zrotation Xrotation Yrotation
                JOINT rThumb2
                {
                  OFFSET -3.37035 -0.52449 3.41376
                  CHANNELS 3 Zrotation Xrotation Yrotation
                  End Site
                  {
                    OFFSET -1.78271 -1.18214 1.43049
                  }
                }
              }
              JOINT rIndex1
              {
                OFFSET -7.75947 0.938293 5.60832
                CHANNELS 3 Zrotation Xrotation Yrotation
                JOINT rIndex2
                {
                  OFFSET -2.54057 -0.884171 1.56538
                  CHANNELS 3 Zrotation Xrotation Yrotation
                  End Site
                  {
                    OFFSET -1.62519 -0.234802 1.16502
                  }
                }
              }
              JOINT rMid1
              {
                OFFSET -8.24714 1.18213 3.41376
                CHANNELS 3 Zrotation Xrotation Yrotation
                JOINT rMid2
                {
                  OFFSET -3.10165 -0.590103 1.0647
                  CHANNELS 3 Zrotation Xrotation Yrotation
                  End Site
                  {
                    OFFSET -2.48547 -0.328903 0.83742
                  }
                }
              }
              JOINT rRing1
              {
                OFFSET -8.82822 0.546677 1.51678
                CHANNELS 3 Zrotation Xrotation Yrotation
                JOINT rRing2
                {
                  OFFSET -2.60934 -0.819778 -0.0198488
                  CHANNELS 3 Zrotation Xrotation Yrotation
                  End Site
                  {
                    OFFSET -2.33842 -0.294052 0.168128
                  }
                }
              }
              JOINT rPinky1
              {
                OFFSET -8.27202 -0.0477905 -0.4584
                CHANNELS 3 Zrotation Xrotation Yrotation
                JOINT rPinky2
                {
                  OFFSET -1.82734 -0.647385 -0.700984
                  CHANNELS 3 Zrotation Xrotation Yrotation
                  End Site
                  {
                    OFFSET -1.69225 -0.51767 -0.607171
                  }
                }
              }
            }
          }
        }
      }
      JOINT lCollar
      {
        OFFSET 2.68224 19.2634 -4.8768
        CHANNELS 3 Zrotation Xrotation Yrotation
        JOINT lShldr
        {
          OFFSET 8.77824 -1.95073 1.46304
          CHANNELS 3 Zrotation Xrotation Yrotation
          JOINT lForeArm
          {
            OFFSET 28.1742 -1.7115 0.48768
            CHANNELS 3 Zrotation Xrotation Yrotation
            JOINT lHand
            {
              OFFSET 22.5879 0.773209 7.07136
              CHANNELS 3 Zrotation Xrotation Yrotation
              JOINT lThumb1
              {
                OFFSET 1.2192 -0.487915 3.41376
                CHANNELS 3 Zrotation Xrotation Yrotation
                JOINT lThumb2
                {
                  OFFSET 3.37035 -0.52449 3.41376
                  CHANNELS 3 Zrotation Xrotation Yrotation
                  End Site
                  {
                    OFFSET 1.78271 -1.18214 1.43049
                  }
                }
              }
              JOINT lIndex1
              {
                OFFSET 7.75947 0.938293 5.60832
                CHANNELS 3 Zrotation Xrotation Yrotation
                JOINT lIndex2
                {
                  OFFSET 2.54057 -0.884171 1.56538
                  CHANNELS 3 Zrotation Xrotation Yrotation
                  End Site
                  {
                    OFFSET 1.62519 -0.234802 1.16502
                  }
                }
              }
              JOINT lMid1
              {
                OFFSET 8.24714 1.18213 3.41376
                CHANNELS 3 Zrotation Xrotation Yrotation
                JOINT lMid2
                {
                  OFFSET 3.10165 -0.590103 1.0647
                  CHANNELS 3 Zrotation Xrotation Yrotation
                  End Site
                  {
                    OFFSET 2.48547 -0.328903 0.83742
                  }
                }
              }
              JOINT lRing1
              {
                OFFSET 8.82822 0.546677 1.51678
                CHANNELS 3 Zrotation Xrotation Yrotation
                JOINT lRing2
                {
                  OFFSET 2.60934 -0.819778 -0.0198488
                  CHANNELS 3 Zrotation Xrotation Yrotation
                  End Site
                  {
                    OFFSET 2.33842 -0.294052 0.168128
                  }
                }
              }
              JOINT lPinky1
              {
                OFFSET 8.27202 -0.0477905 -0.4584
                CHANNELS 3 Zrotation Xrotation Yrotation
                JOINT lPinky2
                {
                  OFFSET 1.82734 -0.647385 -0.700984
                  CHANNELS 3 Zrotation Xrotation Yrotation
                  End Site
                  {
                    OFFSET 1.69225 -0.51767 -0.607171
                  }
                }
              }
            }
          }
        }
      }
    }
  }
  JOINT rButtock
  {
    OFFSET -8.77824 4.35084 1.2192
    CHANNELS 3 Zrotation Xrotation Yrotation
    JOINT rThigh
    {
      OFFSET 0 -1.70687 -2.19456
      CHANNELS 3 Zrotation Xrotation Yrotation
      JOINT rShin
      {
        OFFSET 0 -36.8199 0.73152
        CHANNELS 3 Zrotation Xrotation Yrotation
        JOINT rFoot
        {
          OFFSET 0.73152 -45.1104 -5.12064
          CHANNELS 3 Zrotation Xrotation Yrotation
          End Site
          {
            OFFSET -1.1221 -3.69964 12.103
          }
        }
      }
    }
  }
  JOINT lButtock
  {
    OFFSET 8.77824 4.35084 1.2192
    CHANNELS 3 Zrotation Xrotation Yrotation
    JOINT lThigh
    {
      OFFSET 0 -1.70687 -2.19456
      CHANNELS 3 Zrotation Xrotation Yrotation
      JOINT lShin
      {
        OFFSET 0 -36.8199 0.73152
        CHANNELS 3 Zrotation Xrotation Yrotation
        JOINT lFoot
        {
          OFFSET -0.73152 -45.1104 -5.12064
          CHANNELS 3 Zrotation Xrotation Yrotation
          End Site
          {
            OFFSET 1.1221 -3.69964 12.103
          }
        }
      }
    }
  }
}
MOTION
Frames:	6
Frame Time:	0.03333
0.0 0.0 0.0 0.0 0.0 0.0 0.0 0.0 0.0 0.0 0.0 0.0 0.0 0.0 0.0 0.0 0.0 0.0 0.0 0.0 0.0 0.0 0.0 0.0 0.0 0.0 0.0 0.0 0.0 0.0 0.0 0.0 0.0 0.0 0.0 0.0 0.0 0.0 0.0 0.0 0.0 0.0 0.0 0.0 0.0 0.0 0.0 0.0 0.0 0.0 0.0 0.0 0.0 0.0 0.0 0.0 0.0 0.0 0.0 0.0 0.0 0.0 0.0 0.0 0.0 0.0 0.0 0.0 0.0 0.0 0.0 0.0 0.0 0.0 0.0 0.0 0.0 0.0 0.0 0.0 0.0 0.0 0.0 0.0 0.0 0.0 0.0 0.0 0.0 0.0 0.0 0.0 0.0 0.0 0.0 0.0 0.0 0.0 0.0 0.0 0.0 0.0 0.0 0.0 0.0 0.0 0.0 0.0 0.0 0.0 0.0 0.0 0.0 0.0 0.0 0.0 0.0 0.0 0.0 0.0 0.0 0.0 0.0 0.0 0.0 0.0 0.0 0.0 0.0 0.0 0.0 0.0
0.029300000000000003 62.9169 -0.0879 -0.25385 35.484091 -1.012019 -0.535241 3.685285 8.26956 -9.093892 1.360955 64.330402 9.885451 -6.873644 102.321533 -46.526362 33.987015 -112.492493 -159.665867 -5.117045 -27.982611 -24.815827 7.152034 -31.714814 -83.094352 -47.852351 151.058682 -115.367054 50.276639 123.485441 -40.823277 76.029754 108.492175 -7.312425 -20.48844 -28.303215 1.428575 0.464031 64.076943 64.077018 -39.810109 135.41188 -18.883603 18.063079 -31.00622 -63.093766 49.25754 60.958374 -114.843556 61.802917 32.492275 -98.735489 6.002755 136.715698 -177.708637 8.425724 -134.299765 134.37942 -13.61326 -146.878737 -43.851194 -1.455779 -9.395855 -22.777423 -30.82628 -51.096155 36.457376 55.897878 -107.655825 144.225793 34.117246 -154.465462 -2.458827 14.131702 -154.852464 162.388055 20.159153 -2.548743 -11.366252 23.683438 -112.509285 48.178127 -44.069384 87.321728 -89.536213 -71.776553 -67.566522 -110.230168 22.95815 58.444852 77.895476 -9.986417 64.174397 175.966917 36.566221 122.114702 133.632384 -54.666057 73.598162 4.230748 -3.197621 56.563866 16.996285 54.292803 -3.943274 19.075354 -41.92415 26.331616 47.443485 -5.182553 80.494747 -6.633118 46.588765 -180.0 2.685142 -1.958834 91.209481 49.56325 -54.137096 -118.160901 -57.087378 -12.40895 -66.735985 21.695651 56.209506 47.385143 -5.838757 2.992488 -129.045042 -27.631935 -56.725333 140.890944
0.5277 59.197 1.1589 -170.947211 13.021006 -170.817456 1.504857 7.707256 111.215973 -7.345122 -3.686839 -107.643536 -9.835197 12.926412 -18.505873 26.355586 -22.614399 30.365754 -28.420484 4.742147 -18.573038 3.930586 -0.049172 -1.432916 -139.218387 35.642052 143.251549 78.007721 -37.502514 102.559334 -81.920835 -0.837921 34.511376 80.719317 -69.708158 65.294216 176.136406 -7.114891 95.420615 -34.296109 -17.849761 5.351396 -55.241521 45.59438 24.21077 -5.977484 10.807454 11.480174 167.477717 -65.063951 143.590203 72.115737 -82.284 42.768096 11.748271 1.72912 -1.171284 -28.88683 9.416709 -5.396119 -17.67369 16.764618 -7.192103 25.923639 19.91451 4.936551 156.443378 -18.359703 -164.45423 -147.725803 12.788572 159.67403 178.655391 14.77549 -94.493631 -164.673231 -19.627662 -138.304198 14.930952 -12.560109 -7.415324 36.991822 47.32145 -43.025569 150.004124 -6.64709 -113.345906 150.391659 5.551313 -136.595409 55.524393 34.13337 -46.851718 164.446503 -80.024893 -145.028402 155.573799 14.589225 -174.202032 177.187462 63.130192 -172.654702 162.598006 20.183183 119.747391 35.52209 3.367107 50.071466 -41.533462 11.615879 -38.660686 42.795999 -10.839311 117.461534 65.936988 -4.140581 102.805125 95.340114 -18.358458 175.000041 -5.347935 -0.137556 -2.664983 52.801913 -43.762153 -0.0 -64.173638 34.510284 -15.233755 149.948653 -23.49885 -106.793781
0.5097 60.891 2.4268 -171.726992 6.753212 -168.642917 7.297239 9.365855 0.0 0.702959 -7.591116 4.990738 10.491824 20.42643 94.271143 -36.191394 9.695965 -88.498946 -13.908949 0.564998 -4.629476 11.364601 1.938343 19.297917 -2.555984 0.245178 -1.137158 68.431613 5.820955 -8.19212 169.641037 -15.1376 68.759171 -168.293706 15.849957 140.083656 -76.921725 45.904585 40.97001 11.38536 -29.036726 2.912409 -16.815723 25.740608 10.646477 -164.26721 -40.309737 122.547416 -82.444474 61.340068 79.725265 -165.304516 -0.626054 158.136363 -10.21706 -2.367166 10.031152 -4.021048 -23.866117 -30.573305 -25.899118 -37.69291 -23.510038 64.635502 76.131861 -32.787145 156.38252 -3.504938 -159.77296 -146.343878 -4.666562 164.018952 -65.905833 -33.633619 -75.117128 95.52433 78.291932 -77.985794 9.068385 0.383194 3.107729 93.010075 15.527955 -86.409974 54.932114 36.19928 -35.08979 -12.193894 3.500889 -29.327845 11.740288 19.720815 -8.63864 109.549007 -83.532698 150.154455 -1.53019 1.872425 12.903679 -20.876502 -22.578215 -24.519662 -37.402905 31.18053 21.588914 31.952286 66.470164 -39.817456 0.265893 -3.251284 -0.326238 -10.97641 -18.465431 -3.724354 4.857644 65.900191 -124.017357 30.755651 -27.845618 103.446102 -176.695003 75.752068 -3.409643 -156.099086 10.739574 79.47756 81.928708 2.277336 30.86885 -78.699452 -54.194032 -169.19829
-0.3127 63.952600000000004 2.0854 -178.662416 -5.902477 -170.22654 5.997542 9.244203 -0.0 -4.133218 -6.623089 2.449335 -2.719048 13.171975 -28.560693 19.943657 -27.817217 27.722197 -5.403498 0.279742 -5.922806 21.525067 9.095164 45.412368 -156.412621 -3.188651 164.213663 126.364297 -21.542188 165.501243 167.913352 21.062741 72.072985 -160.158645 14.104902 132.345148 -12.304396 26.240808 18.247392 -16.62306 4.313447 3.896146 -135.395491 1.910414 119.505521 46.042221 -53.662346 7.122696 -9.989825 41.319933 16.227457 -9.405971 -37.529234 -3.219259 -123.974785 32.02282 148.29636 21.965621 36.174622 21.311565 33.159856 57.75311 11.969344 -129.444313 -9.218617 -111.455993 153.989154 -5.852158 -159.908201 168.441716 -59.212345 127.119315 18.539133 -70.39973 -24.384593 2.401855 23.67909 0.378709 -3.743919 -14.326878 10.204105 -10.797941 3.784899 -17.018627 162.452608 -20.704447 -120.034517 21.524058 -7.312641 22.642314 -6.063172 -45.753025 8.24009 -0.316653 -11.445681 12.713075 75.596151 -52.511301 95.024946 60.168013 70.890302 -104.015619 -7.825933 9.003938 13.085517 18.338777 -13.355411 -3.28447 0.259327 3.973327 -3.737233 -8.562806 -37.095477 36.501133 64.438482 31.766929 28.904193 130.344902 66.877887 142.898057 -45.975956 24.835162 -49.430726 91.730424 -4.059763 -81.810354 -70.534175 -48.470608 -74.474579 151.618075 18.252692 149.398666
-1.4805000000000001 66.9014 -0.3263 174.786778 -19.9916 -173.524032 -0.194284 7.502463 -178.512343 3.280772 2.029134 178.218024 -4.508982 21.050301 -66.550173 39.297197 -11.733598 65.126578 6.598362 -2.276932 -38.04216 -179.359043 0.336937 55.459556 -9.870068 34.864954 10.946242 61.242974 19.238045 33.071214 107.810663 30.880725 91.465028 -125.434024 50.370245 92.469443 4.61576 25.330061 19.956656 -163.644528 -17.411922 114.64002 -149.165445 -37.209546 119.971867 91.802178 -51.389405 35.990248 -89.862266 51.004465 79.219815 -168.754662 23.285088 133.878389 13.828009 -43.623065 2.117024 -21.791102 -22.783647 -22.238471 -68.79032 -46.358036 -78.13738 -156.969428 14.232461 -155.621978 -2.439611 -2.806739 1.047364 -40.724573 40.125377 -46.74393 11.626642 -12.6764 -42.585986 -1.25525 11.562951 4.671054 -4.681657 -26.51924 16.33302 -2.449931 21.207405 -50.181601 109.776073 32.617548 -89.879776 -9.875312 -28.651676 -8.85156 138.066278 57.369085 -105.121924 -85.721676 -50.894292 -65.516924 125.381196 -14.366985 158.924756 110.970994 -43.080987 173.760102 -179.489423 53.060095 128.186959 -4.579008 17.913377 15.185924 -165.465163 71.258399 -15.31141 164.51154 20.206594 -180.0 -29.591743 -71.244651 -148.353134 -140.132388 40.497998 59.139752 -19.905118 2.776371 -36.874887 29.749112 -12.260969 69.616212 44.901583 47.518168 50.700438 -83.247579 45.292028 -17.782229
